HIERARCHY
ROOT hip
{
  OFFSET 0 0 0
  CHANNELS 6 Xposition Yposition Zposition Zrotation Yrotation Xrotation
  JOINT abdomen
  {
    OFFSET 0 20.6881 -0.73152
    CHANNELS 3 Zrotation Xrotation Yrotation
    JOINT chest
    {
      OFFSET 0 11.7043 -0.48768
      CHANNELS 3 Zrotation Xrotation Yrotation
      JOINT neck
      {
        OFFSET 0 22.1894 -2.19456
        CHANNELS 3 Zrotation Xrotation Yrotation
        JOINT head
        {
          OFFSET -0.24384 7.07133 1.2192
          CHANNELS 3 Zrotation Xrotation Yrotation
          JOINT leftEye
          {
            OFFSET 4.14528 8.04674 8.04672
            CHANNELS 3 Zrotation Xrotation Yrotation
            End Site
            {
              OFFSET 1 0 0
            }
          }
          JOINT rightEye
          {
            OFFSET -3.6576 8.04674 8.04672
            CHANNELS 3 Zrotation Xrotation Yrotation
            End Site
            {
              OFFSET 1 0 0
            }
          }
        }
      }
      JOINT rCollar
      {
        OFFSET -2.68224 19.2634 -4.8768
        CHANNELS 3 Zrotation Xrotation Yrotation
        JOINT rShldr
        {
          OFFSET -8.77824 -1.95073 1.46304
          CHANNELS 3 Zrotation Xrotation Yrotation
          JOINT rForeArm
          {
            OFFSET -28.1742 -1.7115 0.48768
            CHANNELS 3 Zrotation Xrotation Yrotation
            JOINT rHand
            {
              OFFSET -22.5879 0.773209 7.07136
              CHANNELS 3 Zrotation Xrotation Yrotation
              JOINT rThumb1
              {
                OFFSET -1.2192 -0.487915 3.41376
                CHANNELS 3 Zrotation Xrotation Yrotation
                JOINT rThumb2
                {
                  OFFSET -3.37035 -0.52449 3.41376
                  CHANNELS 3 Zrotation Xrotation Yrotation
                  End Site
                  {
                    OFFSET -1.78271 -1.18214 1.43049
                  }
                }
              }
              JOINT rIndex1
              {
                OFFSET -7.75947 0.938293 5.60832
                CHANNELS 3 Zrotation Xrotation Yrotation
                JOINT rIndex2
                {
                  OFFSET -2.54057 -0.884171 1.56538
                  CHANNELS 3 Zrotation Xrotation Yrotation
                  End Site
                  {
                    OFFSET -1.62519 -0.234802 1.16502
                  }
                }
              }
              JOINT rMid1
              {
                OFFSET -8.24714 1.18213 3.41376
                CHANNELS 3 Zrotation Xrotation Yrotation
                JOINT rMid2
                {
                  OFFSET -3.10165 -0.590103 1.0647
                  CHANNELS 3 Zrotation Xrotation Yrotation
                  End Site
                  {
                    OFFSET -2.48547 -0.328903 0.83742
                  }
                }
              }
              JOINT rRing1
              {
                OFFSET -8.82822 0.546677 1.51678
                CHANNELS 3 Zrotation Xrotation Yrotation
                JOINT rRing2
                {
                  OFFSET -2.60934 -0.819778 -0.0198488
                  CHANNELS 3 Zrotation Xrotation Yrotation
                  End Site
                  {
                    OFFSET -2.33842 -0.294052 0.168128
                  }
                }
              }
              JOINT rPinky1
              {
                OFFSET -8.27202 -0.0477905 -0.4584
                CHANNELS 3 Zrotation Xrotation Yrotation
                JOINT rPinky2
                {
                  OFFSET -1.82734 -0.647385 -0.700984
                  CHANNELS 3 Zrotation Xrotation Yrotation
                  End Site
                  {
                    OFFSET -1.69225 -0.51767 -0.607171
                  }
                }
              }
            }
          }
        }
      }
      JOINT lCollar
      {
        OFFSET 2.68224 19.2634 -4.8768
        CHANNELS 3 Zrotation Xrotation Yrotation
        JOINT lShldr
        {
          OFFSET 8.77824 -1.95073 1.46304
          CHANNELS 3 Zrotation Xrotation Yrotation
          JOINT lForeArm
          {
            OFFSET 28.1742 -1.7115 0.48768
            CHANNELS 3 Zrotation Xrotation Yrotation
            JOINT lHand
            {
              OFFSET 22.5879 0.773209 7.07136
              CHANNELS 3 Zrotation Xrotation Yrotation
              JOINT lThumb1
              {
                OFFSET 1.2192 -0.487915 3.41376
                CHANNELS 3 Zrotation Xrotation Yrotation
                JOINT lThumb2
                {
                  OFFSET 3.37035 -0.52449 3.41376
                  CHANNELS 3 Zrotation Xrotation Yrotation
                  End Site
                  {
                    OFFSET 1.78271 -1.18214 1.43049
                  }
                }
              }
              JOINT lIndex1
              {
                OFFSET 7.75947 0.938293 5.60832
                CHANNELS 3 Zrotation Xrotation Yrotation
                JOINT lIndex2
                {
                  OFFSET 2.54057 -0.884171 1.56538
                  CHANNELS 3 Zrotation Xrotation Yrotation
                  End Site
                  {
                    OFFSET 1.62519 -0.234802 1.16502
                  }
                }
              }
              JOINT lMid1
              {
                OFFSET 8.24714 1.18213 3.41376
                CHANNELS 3 Zrotation Xrotation Yrotation
                JOINT lMid2
                {
                  OFFSET 3.10165 -0.590103 1.0647
                  CHANNELS 3 Zrotation Xrotation Yrotation
                  End Site
                  {
                    OFFSET 2.48547 -0.328903 0.83742
                  }
                }
              }
              JOINT lRing1
              {
                OFFSET 8.82822 0.546677 1.51678
                CHANNELS 3 Zrotation Xrotation Yrotation
                JOINT lRing2
                {
                  OFFSET 2.60934 -0.819778 -0.0198488
                  CHANNELS 3 Zrotation Xrotation Yrotation
                  End Site
                  {
                    OFFSET 2.33842 -0.294052 0.168128
                  }
                }
              }
              JOINT lPinky1
              {
                OFFSET 8.27202 -0.0477905 -0.4584
                CHANNELS 3 Zrotation Xrotation Yrotation
                JOINT lPinky2
                {
                  OFFSET 1.82734 -0.647385 -0.700984
                  CHANNELS 3 Zrotation Xrotation Yrotation
                  End Site
                  {
                    OFFSET 1.69225 -0.51767 -0.607171
                  }
                }
              }
            }
          }
        }
      }
    }
  }
  JOINT rButtock
  {
    OFFSET -8.77824 4.35084 1.2192
    CHANNELS 3 Zrotation Xrotation Yrotation
    JOINT rThigh
    {
      OFFSET 0 -1.70687 -2.19456
      CHANNELS 3 Zrotation Xrotation Yrotation
      JOINT rShin
      {
        OFFSET 0 -36.8199 0.73152
        CHANNELS 3 Zrotation Xrotation Yrotation
        JOINT rFoot
        {
          OFFSET 0.73152 -45.1104 -5.12064
          CHANNELS 3 Zrotation Xrotation Yrotation
          End Site
          {
            OFFSET -1.1221 -3.69964 12.103
          }
        }
      }
    }
  }
  JOINT lButtock
  {
    OFFSET 8.77824 4.35084 1.2192
    CHANNELS 3 Zrotation Xrotation Yrotation
    JOINT lThigh
    {
      OFFSET 0 -1.70687 -2.19456
      CHANNELS 3 Zrotation Xrotation Yrotation
      JOINT lShin
      {
        OFFSET 0 -36.8199 0.73152
        CHANNELS 3 Zrotation Xrotation Yrotation
        JOINT lFoot
        {
          OFFSET -0.73152 -45.1104 -5.12064
          CHANNELS 3 Zrotation Xrotation Yrotation
          End Site
          {
            OFFSET 1.1221 -3.69964 12.103
          }
        }
      }
    }
  }
}
MOTION
Frames:	8
Frame Time:	0.03333
-39.0156 62.5 -18.722 143.161925 -77.061031 -141.070964 1.25783 11.365332 -0.196522 0.418341 -10.032852 -15.098072 6.634538 19.498692 86.534474 -35.693775 6.251131 -78.408692 -0.000188 -0.0 0.004246 -0.001271 0.0 -0.001051 -130.420619 54.549554 134.288351 10.551693 3.990557 57.808484 -28.47023 53.879285 -87.447462 150.200564 -47.624671 132.321177 -3.031217 2.963808 0.54138 24.049129 -35.901691 -13.657358 -90.225817 41.072077 75.796473 9.516948 -5.935687 -5.85686 -175.93447 -50.680196 144.034388 3.292352 -0.639779 0.217033 0.004031 0.876694 0.275408 -23.453525 72.95309 36.41108 -146.207724 15.405277 -142.731358 10.633814 24.218833 3.696511 159.220422 -48.028635 -170.414654 65.968686 -47.840429 78.652725 158.927489 -8.286772 82.897122 3.707457 -18.642633 4.097469 -83.253968 -50.258784 -33.615585 21.117343 -18.32157 20.790098 108.428692 34.162176 -91.743369 161.773735 -6.404419 -115.951763 -78.533287 -80.92119 -49.683566 5.218763 21.254954 -4.607961 -0.003954 1.855399 -0.582834 156.515037 -20.592402 -174.27072 -0.097746 0.258716 -0.08987 22.757429 -40.183467 23.481673 -179.998711 75.748728 -0.001329 171.407152 23.381237 -180.0 28.558552 -75.008095 107.94628 125.4901 59.837981 -29.920599 179.958519 75.750405 0.03413 -157.954912 38.107561 -33.271252 -123.384237 54.700434 32.888343 155.00096 -38.163178 -117.514515
-43.7097 64.57770000000001 -19.3677 152.674361 -70.637227 -155.4588 -0.650215 14.702189 43.486625 -4.920421 -7.250662 -55.592707 -7.640063 12.399246 -7.915186 9.839302 -25.640774 19.118026 0.001091 -0.0 -0.003859 0.001091 -0.0 -0.003859 -155.504308 -3.514541 161.838435 -66.918658 38.796121 43.763479 -120.472344 52.928488 -150.574624 0.320245 9.466886 1.622522 -171.705756 -9.388585 89.948679 -159.098379 -0.090306 83.453534 -27.608692 30.766382 20.254485 167.850644 -44.84901 101.872494 -36.0338 51.724159 29.830845 -169.970525 -25.747323 144.20699 -73.163663 -72.142052 -90.198329 -67.340787 83.327983 85.093422 0.098301 0.258518 0.090463 10.052646 24.771645 5.924671 120.99608 60.379959 -124.634637 140.263604 52.757419 -109.875554 73.045978 12.965216 177.891406 -42.608078 -75.171252 -26.715949 4.034027 3.93194 -0.754764 -28.157071 -41.713349 14.245349 152.812491 -19.873448 -121.572136 -132.827728 -69.579736 -75.923731 166.11919 -24.039807 -145.077302 5.164111 21.242521 -4.805596 145.120326 0.309673 179.22659 -11.892972 29.424207 5.656058 124.850926 -29.036979 122.619652 -2.85597 -0.62762 1.837406 -0.000459 0.000157 -0.0 -10.05015 -40.204354 -15.352549 -8.335758 62.255943 37.58697 -67.342941 21.751425 -7.79745 -0.000459 0.000157 -0.0 35.508225 -45.008499 -34.715978 -125.830197 25.244346 -119.445732 92.902223 67.648082 164.492171
-48.6702 67.2738 -19.3244 157.3231 -60.806077 -165.847587 0.410828 16.149946 178.523313 1.934309 4.198004 175.351718 -4.994579 31.937882 -163.742128 13.088238 43.736672 170.122766 0.005152 -0.0 -7.5e-05 -0.000514 -0.0 0.000653 -142.973722 39.431844 147.390605 62.015424 -41.304099 73.515113 17.600413 -67.181917 92.813182 -10.971254 41.367534 3.640295 -0.544244 0.536043 0.086684 2.326811 -2.825324 -1.529864 -132.817584 12.806943 111.108981 -176.172522 -36.111987 116.017231 -82.840009 61.109678 74.532689 -42.119152 58.444272 36.384549 -145.110542 -0.626922 -178.930718 -155.438281 0.832065 -179.330752 4.279399 12.353721 3.875527 3.42511 3.385972 0.986025 150.16859 21.535156 -155.275096 106.891566 78.60768 -80.405066 130.800241 -83.405704 -102.823545 177.365224 -8.546632 -143.292143 -4.530667 -4.514187 0.521023 142.672733 -50.109668 -123.201063 108.427645 34.162666 -91.744248 -63.702033 -62.259446 -19.517938 89.835037 60.703119 -81.263206 42.134928 58.434576 -36.400673 6e-06 0.063752 -0.020201 -7.019632 29.0917 -4.543182 -5.049457 14.842763 -4.555145 147.616639 11.639567 143.645072 0.0 -0.000214 0.000548 -9.407905 -30.582162 -18.038717 -13.407913 62.539913 110.353019 -55.871746 80.760196 -34.730146 -0.001974 -0.000214 -0.000987 56.385505 -52.572949 157.305581 116.72544 -19.393155 -86.665578 -65.272346 -25.385983 4.652904
-54.4834 70.3604 -18.6816 155.77779 -47.950389 -170.258252 -2.183382 21.202789 -173.982354 4.722084 4.079981 175.623466 6.712927 20.785946 91.832258 -33.116657 11.206117 -74.67058 0.003694 -0.0 -0.003437 0.003694 -0.0 -0.003437 -6.259717 26.245216 7.477233 -178.237733 -77.856063 129.660138 103.402567 -10.087528 -4.928344 -175.021613 38.016416 147.21407 -103.19904 36.330256 60.111308 -145.954576 -23.341807 77.063006 -124.894025 21.791034 105.25072 -162.955567 -10.55506 117.609638 7.903953 -24.807628 -3.01366 -171.172461 -28.544378 144.211867 -0.000825 -0.018344 -0.006969 -23.387221 72.954728 36.418979 -0.167546 -0.436816 -0.154813 1.403949 -2.963344 -0.921325 153.049978 10.02327 -158.667613 -156.510568 -25.237275 -172.394581 -159.505278 49.461369 -78.89658 170.017031 13.025769 -140.128267 -93.02883 -51.084037 -40.500368 32.838831 2.604051 9.319924 100.824214 37.734372 -85.162309 85.826984 53.431487 -62.901074 158.521107 -0.192468 -142.14448 169.039297 -22.206585 -143.915239 114.669345 66.731684 -135.092582 18.979341 79.491733 -27.353555 126.798098 -26.619396 124.512294 147.603245 14.104635 142.552678 0.003636 -7.9e-05 0.001818 -14.213503 -25.1972 127.217531 57.431984 -26.313723 166.930181 44.121036 -76.059637 133.535899 -179.987014 75.748317 -0.010684 -141.516757 -5.906276 94.024894 131.787021 -14.31024 80.639756 -158.303024 3.08612 153.149561
-60.77439999999999 73.8198 -18.5581 151.335538 -34.670484 -171.915047 -9.783933 29.488289 19.306142 -6.880629 -9.03315 -9.396892 0.737708 12.833609 36.447043 -19.665094 -15.505808 -21.230947 0.001313 -0.0 -0.000113 0.001313 -0.0 -0.000113 -142.973785 39.431698 147.390228 112.507713 -57.401821 116.378078 5.311156 -32.926069 78.420974 -9.673172 40.658062 3.503032 6.463334 -6.452809 -0.634152 -136.786655 -37.248781 121.418518 88.792128 -75.499184 40.050158 27.634093 -19.519183 -6.976956 -82.841181 61.109476 74.532138 -25.214198 49.146524 20.957736 -145.100047 -1.522331 -178.650452 -73.591166 -78.004622 -95.23733 -146.226644 15.469243 -142.749785 -153.976164 31.441843 -145.32491 143.620363 38.233147 -148.080003 19.408477 -6.55463 -30.602492 176.330477 -5.724263 103.02486 8.964605 -1.167957 2.738983 -175.878979 -21.25703 -88.492732 29.685516 -33.541619 3.958934 50.386276 40.825256 -40.025966 3.315896 14.365282 -0.509344 -23.901688 -61.334219 -1.397465 163.437704 -4.704528 -143.229902 145.101635 -1.52128 178.650499 54.639231 87.578729 -67.974484 145.694036 13.731738 142.282569 -10.208594 22.759957 -3.438729 -0.0 0.0001 0.000849 -22.81807 -22.400922 154.51311 35.687315 -44.450396 169.334668 105.320992 33.005714 -11.252325 8.8e-05 0.001389 -0.000113 97.927132 -44.534608 -0.0 -117.204265 15.332408 34.785419 -53.379062 -85.722256 35.772351
-65.6016 78.2072 -19.7722 144.817897 -22.463751 -171.772911 -19.631827 30.888172 9.658279 -4.778653 -12.03987 7.544581 0.464434 30.839494 169.358497 0.053715 42.917485 -150.117408 -0.002788 0.0 -0.001907 0.003803 0.0 0.000238 -159.221958 -48.380845 170.491579 -4.513638 1.020599 -15.528243 175.16415 42.055911 -99.506786 -12.175714 45.730268 4.602707 -171.70517 -9.388893 89.948245 153.092381 -40.828493 98.993414 -9.375221 13.536032 6.013258 -162.293691 -12.422255 110.189587 -8.415216 20.880808 5.644392 -154.005053 20.037846 138.712632 -145.121148 1.975168 -179.749383 -157.474 45.526686 175.524183 -24.989412 -37.659358 -24.060044 -151.705222 29.364159 -146.916502 85.537554 68.182129 -88.688848 -61.27909 -35.893614 -59.892485 -13.551766 -69.923492 -82.031518 9.805989 -0.508076 2.671848 169.561688 -7.243311 -89.929137 28.095423 -32.67276 -5.032521 145.57432 -6.674272 -118.789047 6.104017 27.860404 1.752888 -78.537263 -80.919117 -49.688705 42.440629 58.393355 -36.308966 73.164967 -72.141978 90.198347 -14.726483 0.411997 4.541998 -0.464429 1.226535 -0.429118 -1.376561 -2.959082 0.9182 -0.000134 0.000225 0.000172 -33.663119 -20.329542 -62.450743 -50.268798 21.442335 -29.913024 157.020423 -5.040434 -90.881227 -179.993851 75.749417 -0.00506 -131.980521 -13.399862 15.634805 107.794866 56.173566 171.765746 122.173039 -58.152474 -149.482526
-68.0442 82.5326 -21.8644 139.084475 -13.962376 -170.41304 -25.502191 27.024328 -85.311838 11.367391 -5.762351 106.652638 0.826034 30.893071 169.163723 3.398457 43.085762 -150.486848 0.000772 -0.0 -0.001455 0.000672 0.0 0.001162 -33.833592 -85.665998 -55.250826 -143.056005 -24.711013 -163.945693 -178.571699 -64.069513 -107.005165 -9.193525 38.892913 3.187042 -176.598339 -14.213112 89.691166 -83.484351 10.629505 28.83049 -1.160201 1.861288 0.669398 18.877188 -10.769017 -1.381321 -151.477884 17.842334 137.539894 92.067899 -78.212043 62.991387 0.000631 -0.018572 -0.005591 -6.627155 62.752135 19.317148 -135.820729 -11.89223 -133.185561 -145.714437 7.780187 -140.855719 6.145203 25.907571 -7.349065 75.158385 64.737422 -126.085506 -3.879843 15.893511 101.879479 171.303355 2.702656 -141.760323 6.581553 6.344517 -1.366856 14.535189 13.767729 -16.140501 -2.32542 -3.867965 1.259142 -170.679903 -45.047109 -100.376732 125.644373 49.839792 -115.273636 -27.609805 -57.4531 -5.240562 145.120147 0.267295 179.213381 23.556042 -71.730979 44.769879 -9.600797 31.055656 -8.343006 -63.125962 85.693823 25.431832 179.995536 75.752034 0.003054 128.253166 35.209123 -114.445444 -13.878457 -39.815145 84.359768 -28.208061 -50.289042 66.181813 179.999164 75.751086 0.000862 -131.401193 -2.964449 89.771364 54.492154 -36.147107 -46.482416 -85.484697 22.063504 -0.351235
-71.7468 85.5562 -23.089299999999998 136.290059 -10.442796 -168.619468 -29.675447 22.893139 -124.321085 11.541431 2.145453 144.030896 6.813915 15.421152 66.911486 -30.035714 7.596181 -43.265124 -0.002004 0.0 -0.001409 0.003724 -0.0 -0.001462 1.987901 -14.037457 -2.878137 -94.35776 58.980426 130.542355 -73.879021 -82.859619 -1.102079 -6.253728 30.764448 2.158218 -85.829151 38.630604 47.955646 -156.341085 -33.706435 80.997431 -153.451577 -21.067597 121.746057 165.515123 -59.33167 103.545883 -154.521042 10.689069 139.686007 -7.427659 26.124891 6.436176 -145.099629 -1.520748 -178.649435 12.049153 29.596294 -5.641084 -29.626397 -40.969858 -28.616475 -147.180359 13.625925 -143.786547 159.220621 -48.02845 -170.415367 25.475285 17.335578 13.285094 -166.146561 -74.75496 -62.286588 174.237963 0.520242 -142.300819 6.581566 6.344712 -1.365349 75.242965 22.767747 -70.309873 77.667576 43.03097 -64.538298 -1.386834 7.509201 3.073127 125.646053 49.841723 -115.276365 -3.33325 0.211911 -0.272541 -0.005639 1.771533 -0.555507 80.957387 78.718829 -94.241307 125.80835 -27.876387 123.549987 127.510877 -27.958899 125.795984 0.000879 -0.001341 -0.0 -44.876903 -12.511393 -13.254191 4.618311 18.505719 25.159666 -35.74055 33.014177 -22.538627 179.997631 75.74837 0.002445 -120.018619 8.747019 -12.862306 4.457557 14.89286 -132.803483 -63.801505 60.427599 145.522208
